HIERARCHY
ROOT SimulationBone
{
	OFFSET 0.000000 0.000000 0.000000
	CHANNELS 6 Xposition Yposition Zposition Zrotation Yrotation Xrotation 
	JOINT Hips
	{
		OFFSET 0.000000 0.000000 0.000000
		CHANNELS 6 Xposition Yposition Zposition Zrotation Yrotation Xrotation 
		JOINT LeftUpLeg
		{
			OFFSET 0.103462 1.857844 10.548508
			CHANNELS 3 Zrotation Yrotation Xrotation
			JOINT LeftLeg
			{
				OFFSET 43.500000 -0.000046 -0.000008
				CHANNELS 3 Zrotation Yrotation Xrotation
				JOINT LeftFoot
				{
					OFFSET 42.372192 0.000000 0.000004
					CHANNELS 3 Zrotation Yrotation Xrotation
					JOINT LeftToe
					{
						OFFSET 17.299997 -0.000003 0.000018
						CHANNELS 3 Zrotation Yrotation Xrotation
						End Site
						{
							OFFSET 0.000000 0.000000 0.000000
						}
					}
				}
			}
		}
		JOINT RightUpLeg
		{
			OFFSET 0.103459 1.857830 -10.548515
			CHANNELS 3 Zrotation Yrotation Xrotation
			JOINT RightLeg
			{
				OFFSET 43.500046 -0.000034 -0.000006
				CHANNELS 3 Zrotation Yrotation Xrotation
				JOINT RightFoot
				{
					OFFSET 42.372253 0.000015 -0.000006
					CHANNELS 3 Zrotation Yrotation Xrotation
					JOINT RightToe
					{
						OFFSET 17.299969 -0.000012 0.000010
						CHANNELS 3 Zrotation Yrotation Xrotation
						End Site
						{
							OFFSET 0.000000 0.000000 0.000000
						}
					}
				}
			}
		}
		JOINT Spine
		{
			OFFSET 6.901964 -2.603727 0.000001
			CHANNELS 3 Zrotation Yrotation Xrotation
			JOINT Spine1
			{
				OFFSET 12.588105 -0.000009 0.000006
				CHANNELS 3 Zrotation Yrotation Xrotation
				JOINT Spine2
				{
					OFFSET 12.343197 0.000007 -0.000002
					CHANNELS 3 Zrotation Yrotation Xrotation
					JOINT Neck
					{
						OFFSET 25.832897 0.000002 -0.000001
						CHANNELS 3 Zrotation Yrotation Xrotation
						JOINT Head
						{
							OFFSET 11.766611 0.000000 0.000004
							CHANNELS 3 Zrotation Yrotation Xrotation
							End Site
							{
								OFFSET 0.000000 0.000000 0.000000
							}
						}
					}
					JOINT LeftShoulder
					{
						OFFSET 19.745911 -1.480377 6.000110
						CHANNELS 3 Zrotation Yrotation Xrotation
						JOINT LeftArm
						{
							OFFSET 11.284108 -0.000006 -0.000027
							CHANNELS 3 Zrotation Yrotation Xrotation
							JOINT LeftForeArm
							{
								OFFSET 33.000046 -0.000010 0.000031
								CHANNELS 3 Zrotation Yrotation Xrotation
								JOINT LeftHand
								{
									OFFSET 25.200014 0.000009 0.000001
									CHANNELS 3 Zrotation Yrotation Xrotation
									End Site
									{
										OFFSET 0.000000 0.000000 0.000000
									}
								}
							}
						}
					}
					JOINT RightShoulder
					{
						OFFSET 19.746105 -1.480358 -6.000092
						CHANNELS 3 Zrotation Yrotation Xrotation
						JOINT RightArm
						{
							OFFSET 11.284138 -0.000011 -0.000001
							CHANNELS 3 Zrotation Yrotation Xrotation
							JOINT RightForeArm
							{
								OFFSET 33.000088 0.000023 -0.000007
								CHANNELS 3 Zrotation Yrotation Xrotation
								JOINT RightHand
								{
									OFFSET 25.199776 0.000128 0.000427
									CHANNELS 3 Zrotation Yrotation Xrotation
									End Site
									{
										OFFSET 0.000000 0.000000 0.000000
									}
								}
							}
						}
					}
				}
			}
		}
	}
}
MOTION
Frames: 7
Frame Time: 0.033333
361.947155 0.000000 -221.143348 180.000000 -71.187386 180.000000 -0.013901 88.065247 -0.644080 89.668940 -1.295576 -169.341470 149.396154 -4.761593 178.216383 -24.387044 1.314832 -3.812613 76.618077 1.591840 -3.962292 21.454553 0.003087 -0.000001 -172.642867 0.469801 -174.116125 -30.274209 -3.190898 7.979808 93.821063 -4.550249 6.530965 21.454560 -0.003110 -0.000018 5.330203 0.023448 -0.116019 0.647506 0.047419 -0.231935 0.329416 0.046153 -0.232204 5.506980 0.055584 -2.050608 -16.117373 0.294176 -2.218132 -119.782298 -84.544000 -62.300983 -64.548088 22.708707 -33.067036 -96.349715 -1.338460 2.681074 -12.173368 -12.671810 24.500568 172.327654 80.719558 -6.278176 11.331314 -57.367736 -25.808939 -64.361105 12.500345 -2.127551 1.521263 0.341430 -16.211536 
362.900034 0.000000 -216.702343 180.000000 -73.155471 180.000000 0.656764 87.614403 -1.112423 90.163473 -2.313689 -172.682456 151.051724 -3.674883 178.501981 -19.812741 0.881162 -4.707628 74.015324 1.929584 -4.706720 21.454551 0.003085 -0.000003 -170.686018 3.479915 -173.716204 -32.763342 -3.283714 6.804694 90.277547 -3.425382 7.596309 21.454560 -0.003093 -0.000017 5.387611 -0.153368 0.035113 0.762277 -0.307000 0.069321 0.444174 -0.306428 0.071175 5.061349 1.750415 -2.059637 -16.403490 -0.155224 -1.770828 -118.142014 -84.262978 -63.969960 -61.378525 25.796986 -31.030902 -98.131199 -0.876658 2.728069 -12.903813 -12.165190 24.572200 175.414544 80.612399 -3.149794 12.378771 -57.296544 -27.381679 -64.052783 12.652007 -2.125901 2.466913 -0.729456 -18.019248 
363.677806 0.000000 -212.235825 180.000000 -75.015742 180.000000 1.059469 86.704147 -1.794122 91.218310 -3.756572 -176.216467 151.427152 -2.455707 174.471240 -24.392776 1.259710 -2.700394 65.940647 0.455802 -3.909149 21.454555 0.003088 -0.000001 -171.329203 7.817901 -172.441144 -40.399107 -3.881529 4.758142 85.659281 -1.439477 9.025187 21.454558 -0.003097 -0.000022 5.597191 -0.367580 0.076015 1.181067 -0.735933 0.148503 0.862952 -0.734881 0.152951 5.170039 2.412096 -1.659111 -17.102007 0.020513 -1.307929 -123.575280 -82.940087 -58.590018 -57.782062 28.453579 -26.972306 -98.835952 -0.864983 2.758577 -12.529060 -12.098081 24.648754 179.287343 80.653715 0.781244 12.898884 -57.493206 -28.367169 -63.102185 12.856544 -2.103029 3.387323 -0.267415 -17.090165 
364.291556 0.000000 -207.748940 180.000000 -76.762125 180.000000 1.281313 86.097076 -2.702985 92.347913 -6.432180 -179.266764 151.355011 0.018204 171.811523 -32.613901 0.604460 -2.279214 71.094619 0.800177 -2.493628 21.454553 0.003101 0.000000 -176.179607 13.370296 -171.605593 -53.585757 -6.028737 3.476243 75.792389 -0.121019 7.576964 21.454553 -0.003099 -0.000024 5.876412 -0.982101 -0.039411 1.741051 -1.963577 -0.093042 1.422739 -1.963958 -0.081169 5.453158 3.876636 -1.516055 -18.040640 -0.452497 -0.739715 -128.198293 -82.175543 -53.974088 -53.735530 31.878788 -22.659752 -97.896657 -1.121694 2.734742 -12.882341 -12.099656 24.455549 -175.421155 79.608860 6.139701 12.740907 -58.108818 -28.471415 -60.889791 13.605550 -2.069656 2.527494 1.391890 -15.384081 
364.752369 0.000000 -203.246831 180.000000 -78.390337 180.000000 1.377777 85.925140 -3.114840 93.149182 -7.465326 178.450885 152.415111 0.865910 171.086813 -37.840201 -1.060467 -2.291482 76.320138 1.275706 -1.320307 21.454553 0.003105 0.000001 177.297326 15.539502 -174.204426 -66.653637 -6.785015 4.975006 68.090784 -1.471724 5.296036 21.454563 -0.003106 -0.000008 6.091822 -1.341139 -0.269073 2.177963 -2.677169 -0.562765 1.859498 -2.680383 -0.546571 5.707702 6.014642 -1.454165 -18.582119 -1.019479 -0.104905 -133.904848 -82.470682 -48.193084 -48.501590 35.945349 -16.934341 -94.099564 -2.079264 2.632697 -13.435466 -13.510120 22.885638 -169.691405 78.220617 11.962918 12.246557 -60.209893 -28.016125 -55.702822 14.578812 -1.945755 1.510006 6.146404 -11.190298 
365.071329 0.000000 -198.734642 180.000000 -79.897724 180.000000 1.175797 86.425568 -3.066457 93.638059 -7.088209 176.061644 155.032522 0.643397 168.109670 -39.354710 -0.441508 -1.107479 80.237142 0.606656 -0.717924 21.454551 0.003095 0.000000 170.669980 13.772798 -179.096958 -76.031091 -5.603476 8.237088 66.686607 -3.492365 6.086054 21.454557 -0.003114 -0.000013 6.210467 -1.274597 -0.467300 2.419330 -2.539437 -0.960694 2.100931 -2.545059 -0.945354 7.421357 7.685894 -1.321735 -20.001770 -2.035143 0.609112 -145.056211 -82.453087 -36.924812 -42.887106 40.636429 -7.954012 -86.599559 -6.355179 2.599273 -11.718719 -15.703498 19.757878 -166.242611 77.578614 15.480200 13.029938 -63.122566 -27.656614 -49.449350 14.474462 -1.727669 2.298783 12.468276 -3.196273 
365.259524 0.000000 -194.217518 180.000000 -81.283069 180.000000 0.899175 87.499062 -3.001815 94.160646 -6.643982 174.192208 159.105159 1.618899 167.425613 -37.592033 0.370481 -1.196575 82.249234 0.614765 -0.883706 21.454553 0.003100 -0.000001 164.818953 11.353391 178.791895 -81.722640 -5.196279 8.748922 70.471132 -4.199567 5.636951 21.454558 -0.003104 -0.000018 6.379722 -1.143116 -0.822372 2.763676 -2.266725 -1.671562 2.445437 -2.276645 -1.657858 8.266429 8.950415 -1.303707 -20.023033 -3.444599 1.308831 -153.023927 -82.472588 -28.863775 -39.307691 45.917354 1.623545 -74.362844 -13.473748 2.567392 -5.157784 -16.626311 13.051957 -166.623325 77.615695 15.091588 14.691764 -64.819260 -30.305515 -44.096934 13.834694 -1.522375 7.001597 18.514102 7.411012 
